<svg xmlns="http://www.w3.org/2000/svg" version="1.1" xmlns:xlink="http://www.w3.org/1999/xlink" xmlns:svgjs="http://svgjs.dev/svgjs" width="1000" height="249" viewBox="0 0 1000 249"><g transform="matrix(1,0,0,1,-0.6060606060606233,0.37448656381367584)"><svg viewBox="0 0 396 99" data-background-color="#ffffff" preserveAspectRatio="xMidYMid meet" height="249" width="1000" xmlns="http://www.w3.org/2000/svg" xmlns:xlink="http://www.w3.org/1999/xlink"><defs></defs><g id="tight-bounds" transform="matrix(1,0,0,1,0.2400000000000091,-0.049933127573524416)"><svg viewBox="0 0 395.52 99.16966830883828" height="99.16966830883828" width="395.52"><g><svg viewBox="0 0 395.52 99.16966830883828" height="99.16966830883828" width="395.52"><g transform="matrix(1,0,0,1,0,53.16244073164502)"><svg viewBox="0 0 395.52 46.00722757719326" height="46.00722757719326" width="395.52"><g><svg viewBox="0 0 395.52 46.00722757719326" height="46.00722757719326" width="395.52"><g><svg viewBox="0 0 395.52 46.00722757719326" height="46.00722757719326" width="395.52"><g transform="matrix(1,0,0,1,0,0)"><svg width="395.52" viewBox="3.799999952316284 -35 305.7200012207031 35.599998474121094" height="46.00722757719326" data-palette-color="#31c48d"><g class="undefined-text-0" data-fill-palette-color="primary" id="text-0"><path d="M10.5-34.45Q16.55-34.45 19.68-31.75 22.8-29.05 22.8-23.8L22.8-23.8Q22.8-18.2 19.63-15.48 16.45-12.75 10.6-12.75L10.6-12.75 8.35-12.75 8.35 0 3.8 0 3.8-34.45 10.5-34.45ZM10.6-16.35Q14.45-16.35 16.25-17.98 18.05-19.6 18.05-23.75L18.05-23.75Q18.05-27.5 16.23-29.18 14.4-30.85 10.6-30.85L10.6-30.85 8.35-30.85 8.35-16.35 10.6-16.35ZM38.2-35Q43.9-35 47.1-30.58 50.3-26.15 50.3-17.2L50.3-17.2Q50.3-8.35 47.1-3.88 43.9 0.6 38.2 0.6L38.2 0.6Q32.5 0.6 29.27-3.8 26.05-8.2 26.05-17.15L26.05-17.15Q26.05-26 29.3-30.5 32.55-35 38.2-35L38.2-35ZM38.2-31.3Q34.6-31.3 32.72-28 30.85-24.7 30.85-17.15L30.85-17.15Q30.85-9.65 32.75-6.4 34.65-3.15 38.2-3.15L38.2-3.15Q41.8-3.15 43.65-6.38 45.5-9.6 45.5-17.2L45.5-17.2Q45.5-24.75 43.65-28.03 41.8-31.3 38.2-31.3L38.2-31.3ZM66.84-35Q69.3-35 71.15-34.18 73-33.35 74.84-31.65L74.84-31.65 72.5-28.9Q71.09-30.15 69.8-30.73 68.5-31.3 66.95-31.3L66.95-31.3Q59.59-31.3 59.59-17.25L59.59-17.25Q59.59-3.25 67.09-3.25L67.09-3.25Q68.8-3.25 70.07-3.93 71.34-4.6 72.7-5.85L72.7-5.85 75.15-3.2Q73.65-1.55 71.59-0.48 69.55 0.6 67 0.6L67 0.6Q61.45 0.6 58.12-3.9 54.8-8.4 54.8-17.25L54.8-17.25Q54.8-23.2 56.37-27.18 57.95-31.15 60.67-33.08 63.4-35 66.84-35L66.84-35ZM79.64-34.45L84.19-34.45 84.19 0 79.64 0 79.64-34.45ZM94.94-34.45L99.79-34.45 89.29-18.7 100.54 0 95.39 0 84.39-18.4 94.94-34.45ZM104.34-34.45L120.14-34.45 119.64-30.8 108.89-30.8 108.89-19.35 118.24-19.35 118.24-15.7 108.89-15.7 108.89-3.65 120.34-3.65 120.34 0 104.34 0 104.34-34.45ZM122.84-34.45L143.39-34.45 142.89-30.65 135.24-30.65 135.24 0 130.69 0 130.69-30.65 122.84-30.65 122.84-34.45Z" fill="#31c48d" data-fill-palette-color="primary"></path><path d="M153.89-34.45Q159.94-34.45 163.07-31.75 166.19-29.05 166.19-23.8L166.19-23.8Q166.19-18.2 163.02-15.48 159.84-12.75 153.99-12.75L153.99-12.75 151.74-12.75 151.74 0 147.19 0 147.19-34.45 153.89-34.45ZM153.99-16.35Q157.84-16.35 159.64-17.98 161.44-19.6 161.44-23.75L161.44-23.75Q161.44-27.5 159.62-29.18 157.79-30.85 153.99-30.85L153.99-30.85 151.74-30.85 151.74-16.35 153.99-16.35ZM191.39 0L186.39 0 179.69-14.75Q179.34-14.7 178.64-14.7L178.64-14.7 175.54-14.7 175.54 0 170.99 0 170.99-34.45 177.89-34.45Q183.94-34.45 186.89-31.95 189.84-29.45 189.84-24.75L189.84-24.75Q189.84-21.45 188.29-19.07 186.74-16.7 183.84-15.6L183.84-15.6 191.39 0ZM178.24-18.2Q181.84-18.2 183.44-19.78 185.04-21.35 185.04-24.75L185.04-24.75Q185.04-27.9 183.39-29.38 181.74-30.85 177.84-30.85L177.84-30.85 175.54-30.85 175.54-18.2 178.24-18.2ZM206.69-35Q212.39-35 215.59-30.58 218.79-26.15 218.79-17.2L218.79-17.2Q218.79-8.35 215.59-3.88 212.39 0.6 206.69 0.6L206.69 0.6Q200.99 0.6 197.76-3.8 194.54-8.2 194.54-17.15L194.54-17.15Q194.54-26 197.79-30.5 201.04-35 206.69-35L206.69-35ZM206.69-31.3Q203.09-31.3 201.21-28 199.34-24.7 199.34-17.15L199.34-17.15Q199.34-9.65 201.24-6.4 203.14-3.15 206.69-3.15L206.69-3.15Q210.29-3.15 212.14-6.38 213.98-9.6 213.98-17.2L213.98-17.2Q213.98-24.75 212.14-28.03 210.29-31.3 206.69-31.3L206.69-31.3ZM235.33-35Q237.78-35 239.63-34.18 241.48-33.35 243.33-31.65L243.33-31.65 240.98-28.9Q239.58-30.15 238.28-30.73 236.98-31.3 235.43-31.3L235.43-31.3Q228.08-31.3 228.08-17.25L228.08-17.25Q228.08-3.25 235.58-3.25L235.58-3.25Q237.28-3.25 238.56-3.93 239.83-4.6 241.18-5.85L241.18-5.85 243.63-3.2Q242.13-1.55 240.08-0.48 238.03 0.6 235.48 0.6L235.48 0.6Q229.93 0.6 226.61-3.9 223.28-8.4 223.28-17.25L223.28-17.25Q223.28-23.2 224.86-27.18 226.43-31.15 229.16-33.08 231.88-35 235.33-35L235.33-35ZM248.13-34.45L263.93-34.45 263.43-30.8 252.68-30.8 252.68-19.35 262.03-19.35 262.03-15.7 252.68-15.7 252.68-3.65 264.13-3.65 264.13 0 248.13 0 248.13-34.45ZM277.38-35Q280.13-35 282.25-34.02 284.38-33.05 286.18-31.05L286.18-31.05 283.78-28.45Q282.23-29.95 280.73-30.63 279.23-31.3 277.43-31.3L277.43-31.3Q275.28-31.3 273.95-29.93 272.63-28.55 272.63-26.3L272.63-26.3Q272.63-24.1 273.9-22.7 275.18-21.3 278.73-19.95L278.73-19.95Q282.83-18.4 284.93-16.1 287.03-13.8 287.03-9.55L287.03-9.55Q287.03-6.8 285.75-4.48 284.48-2.15 282.13-0.78 279.78 0.6 276.68 0.6L276.68 0.6Q273.58 0.6 271.18-0.55 268.78-1.7 266.83-3.85L266.83-3.85 269.28-6.45Q271.03-4.85 272.75-4 274.48-3.15 276.58-3.15L276.58-3.15Q279.18-3.15 280.73-4.85 282.28-6.55 282.28-9.45L282.28-9.45Q282.28-11.95 281.03-13.45 279.78-14.95 276.38-16.2L276.38-16.2Q272.03-17.85 270-20.2 267.98-22.55 267.98-26.1L267.98-26.1Q267.98-28.55 269.18-30.6 270.38-32.65 272.53-33.83 274.68-35 277.38-35L277.38-35ZM299.88-35Q302.63-35 304.75-34.02 306.88-33.05 308.67-31.05L308.67-31.05 306.27-28.45Q304.73-29.95 303.23-30.63 301.73-31.3 299.92-31.3L299.92-31.3Q297.77-31.3 296.45-29.93 295.13-28.55 295.13-26.3L295.13-26.3Q295.13-24.1 296.4-22.7 297.67-21.3 301.23-19.95L301.23-19.95Q305.33-18.4 307.42-16.1 309.52-13.8 309.52-9.55L309.52-9.55Q309.52-6.8 308.25-4.48 306.98-2.15 304.63-0.78 302.27 0.6 299.17 0.6L299.17 0.6Q296.08 0.6 293.67-0.55 291.27-1.7 289.33-3.85L289.33-3.85 291.77-6.45Q293.52-4.85 295.25-4 296.98-3.15 299.08-3.15L299.08-3.15Q301.67-3.15 303.23-4.85 304.77-6.55 304.77-9.45L304.77-9.45Q304.77-11.95 303.52-13.45 302.27-14.95 298.88-16.2L298.88-16.2Q294.52-17.85 292.5-20.2 290.48-22.55 290.48-26.1L290.48-26.1Q290.48-28.55 291.67-30.6 292.88-32.65 295.02-33.83 297.17-35 299.88-35L299.88-35Z" fill="#adbfb8" data-fill-palette-color="secondary"></path></g></svg></g></svg></g></svg></g></svg></g><g transform="matrix(1,0,0,1,75.54432,0)"><svg viewBox="0 0 244.43135999999998 42.301238474131544" height="42.301238474131544" width="244.43135999999998"><g><svg xmlns="http://www.w3.org/2000/svg" xmlns:xlink="http://www.w3.org/1999/xlink" version="1.1" viewBox="0 0 87.54199981689453 15.149999618530273" overflow="visible" enable-background="new 0 0 87.542 15.15" xml:space="preserve" x="0" y="0" width="244.43135999999998" height="42.301238474131544" class="icon-icon-0" data-fill-palette-color="accent" id="icon-0"><circle cx="16.307" cy="12.575" r="2.6" fill="#096a2e" data-fill-palette-color="accent"></circle><circle cx="30.039" cy="2.575" r="2.6" fill="#096a2e" data-fill-palette-color="accent"></circle><circle cx="43.771" cy="12.575" r="2.6" fill="#096a2e" data-fill-palette-color="accent"></circle><circle cx="57.503" cy="2.575" r="2.6" fill="#096a2e" data-fill-palette-color="accent"></circle><circle cx="2.575" cy="2.575" r="2.6" fill="#096a2e" data-fill-palette-color="accent"></circle><circle cx="71.235" cy="12.575" r="2.6" fill="#096a2e" data-fill-palette-color="accent"></circle><circle cx="84.967" cy="2.575" r="2.6" fill="#096a2e" data-fill-palette-color="accent"></circle><g fill="#096a2e" data-fill-palette-color="accent"><polygon points="24.029,5.481 20.155,8.979 21.496,10.463 25.368,6.966 26.179,7.887 25.797,5.074 23.207,4.57  " fill="#096a2e" data-fill-palette-color="accent"></polygon></g><g fill="#096a2e" data-fill-palette-color="accent"><polygon points="11.599,7.989 7.63,4.601 6.332,6.121 10.3,9.509 9.492,10.432 12.232,9.689 12.396,7.056  " fill="#096a2e" data-fill-palette-color="accent"></polygon></g><g fill="#096a2e" data-fill-palette-color="accent"><polygon points="39.206,7.989 35.237,4.601 33.938,6.121 37.907,9.509 37.099,10.432 39.839,9.689 40.003,7.056  " fill="#096a2e" data-fill-palette-color="accent"></polygon></g><g fill="#096a2e" data-fill-palette-color="accent"><polygon points="66.813,7.989 62.843,4.601 61.545,6.121 65.514,9.509 64.706,10.432 67.446,9.689 67.61,7.056  " fill="#096a2e" data-fill-palette-color="accent"></polygon></g><g fill="#096a2e" data-fill-palette-color="accent"><polygon points="51.635,5.481 47.762,8.979 49.103,10.462 52.975,6.966 53.786,7.886 53.404,5.074 50.814,4.57  " fill="#096a2e" data-fill-palette-color="accent"></polygon></g><g fill="#096a2e" data-fill-palette-color="accent"><polygon points="79.243,5.481 75.37,8.979 76.71,10.462 80.583,6.966 81.393,7.886 81.011,5.074 78.421,4.57  " fill="#096a2e" data-fill-palette-color="accent"></polygon></g></svg></g></svg></g><g></g></svg></g></svg><rect width="395.52" height="99.16966830883828" fill="none" stroke="none" visibility="hidden"></rect></g></svg></g></svg>